<svg xmlns="http://www.w3.org/2000/svg" data-name="Layer 1" viewBox="0 0 100 125" x="0px" y="0px">
  <defs>
    <style>
      .cls-1 {
      fill: #953548;
      }
    </style>
  </defs>
  <path class="cls-1"
    d="m22.71,59.75l.86,13.89c.02.43-.19.81-.53,1.01l-15.54,10.44c-1.42.93-1.82,2.84-.89,4.26,1.01,1.54,2.85,1.84,4.31.86l17.55-11.76c.93-.61,1.45-1.65,1.38-2.76l-.87-14.03c-.15-.07-.31-.13-.49-.18l-4.01-1.07c-.62-.17-1.22-.39-1.78-.67h0Zm35.72,4.5c.98,1.06,2.63,1.59,4.1,2.05,2.5.79,4.2,1.55,5,4.26,2.29,0,4.26-1.15,5.65-2.92-.16-.33-.31-.67-.43-1.02-.45.26-.96.39-1.48.41-1.1.05-1.97-.45-2.63-1.23-1.05-1.23-1.57-3.27-1.65-4.86-.03-.61.45-1.13,1.06-1.15.61-.03,1.13.45,1.15,1.06.05,1.07.42,2.7,1.12,3.53.24.28.52.46.84.45.35-.02.63-.17.82-.47.21-.33.24-.61.26-.99.06-1.42-.03-3.05-.58-4.38-.6-1.45-2.11-2.21-3.6-2.41-1.29-.18-2.92.05-3.93.94-.62.55-1.07,1.34-1.6,1.99-1.03,1.29-1.79,1.59-3.44,1.56-.66-.01-1.43-.02-1.57.23-.42.71.41,2.43.91,2.97h0Zm6.14-2.05c-.67-.18-1.06-.87-.89-1.53.18-.67.87-1.06,1.53-.89.67.18,1.06.87.89,1.53-.18.67-.87,1.06-1.53.89h0Zm7.62,20.78l-3.09-.83v6.31c0,.85.7,1.55,1.55,1.55s1.55-.7,1.55-1.55v-5.49h0Zm2.25-13.4c1.3,1.58,3.1,2.78,5.1,3.31l6.17,1.65c2.79.75,5.54,1.48,7.94.64.17-.06.31.12.22.27-.79,1.26-1.98,2.31-3.73,2.32-.61,0-1.1.5-1.1,1.11,0,1.68-.68,3.13-2.08,4.07-1.19.8-1.88,2.08-1.88,3.52v4.76c0,.85-.7,1.55-1.55,1.55s-1.55-.7-1.55-1.55v-4.68c0-1.94-1.27-3.59-3.15-4.1l-9.16-2.46c-1.49-.4-3,0-4.1,1.1l-4.04,4.04c-.6.6-1.59.6-2.19,0-.6-.6-.6-1.59,0-2.19l7.09-7.09c.82-.82,1.25-1.95,1.34-3.09,2.6-.07,4.93-1.27,6.66-3.2h0ZM37.8,7.22c-3.98,0-7.21,3.23-7.21,7.21s3.23,7.21,7.21,7.21,7.21-3.23,7.21-7.21-3.23-7.21-7.21-7.21h0Zm-2,28.47l2.19,4.01-3.26,12.17c-.46,1.73,0,3.48,1.27,4.75l9.08,9.08c.5.5.93,1.52.93,2.21v21.78c0,1.7-1.38,3.08-3.08,3.08s-3.08-1.38-3.08-3.08v-20.04c0-.28-.11-.57-.33-.79l-8.25-8.25c-.62-.62-1.36-1.05-2.21-1.27l-4.01-1.07c-4.08-1.09-6.53-5.33-5.43-9.41l5.33-19.88c1.09-4.08,5.33-6.53,9.41-5.43,2.07.56,3.78,1.96,4.8,3.84l8.02,14.68c.1.21.27.39.5.5l11.21,5.65c1.16.6,1.62,2.02,1.02,3.18-.6,1.16-2.02,1.62-3.18,1.02-4.01-2.08-8.19-4.01-12.16-6.14-.42-.22-.76-.56-.99-.97-1.94-3.56-3.89-7.12-5.83-10.67-.29-.54-.96-.74-1.5-.44-.54.29-.74.96-.44,1.5Z" />
</svg>